<svg width="60" height="60" viewBox="0 0 60 60" fill="none" xmlns="http://www.w3.org/2000/svg">
<path d="M21.9578 16C24.1786 16 25.9789 17.7909 25.9789 20C25.9789 22.2091 24.1786 24 21.9578 24C19.737 24 17.9367 22.2091 17.9367 20C17.9367 17.7909 19.737 16 21.9578 16Z" fill="#FFBA43"/>
<path fill-rule="evenodd" clip-rule="evenodd" d="M47.068 4C47.7451 4.00299 48.3239 4.02101 48.8027 4.11621L49.1208 4.18848C52.2557 4.986 54.2022 8.11877 53.5169 11.2646L53.4394 11.5791C53.2679 12.2041 52.8936 12.9257 52.4508 13.8066C51.2442 16.2071 50.6094 17.473 50.1428 18.5811L49.9523 19.0488C47.1774 26.0887 47.1774 33.9113 49.9523 40.9512C50.4401 42.1887 51.072 43.4502 52.4508 46.1934C52.8936 47.0743 53.2679 47.7959 53.4394 48.4209L53.5169 48.7354C54.2022 51.8812 52.2557 55.014 49.1208 55.8115L48.8027 55.8838C48.3239 55.979 47.7451 55.997 47.068 56H12.932C12.3676 55.9975 11.8715 55.9842 11.4447 55.9248L11.1973 55.8838C7.77055 55.2021 5.64115 51.7747 6.56065 48.4209L6.63428 48.1826C6.82682 47.6136 7.16166 46.9644 7.54923 46.1934L8.45339 44.3906C9.23549 42.8209 9.68188 41.8792 10.0477 40.9512L10.3 40.2891C12.7389 33.6447 12.7389 26.3553 10.3 19.7109L10.0477 19.0488C9.55988 17.8113 8.92803 16.5498 7.54923 13.8066C7.16166 13.0356 6.82682 12.3864 6.63428 11.8174L6.56065 11.5791C5.64115 8.22535 7.77055 4.79794 11.1973 4.11621L11.4447 4.0752C11.8715 4.01584 12.3676 4.00249 12.932 4H47.068ZM13.6427 8C12.4192 8 12.1278 8.0108 11.9856 8.03906C10.8433 8.26631 10.1339 9.40845 10.4404 10.5264L10.4895 10.665C10.5651 10.8489 10.7358 11.2011 11.1462 12.0176C12.492 14.695 13.2225 16.1443 13.7919 17.5889L14.0776 18.3389C16.8417 25.8692 16.8417 34.1308 14.0776 41.6611L13.7919 42.4111C13.3804 43.4551 12.884 44.5012 12.1328 46.0117L18.3049 37.3145C19.1059 36.186 20.7886 36.186 21.5897 37.3145L27.1354 45.1299L35.8186 30.833C36.6007 29.5456 38.4784 29.5456 39.2605 30.833L46.0667 42.0391C43.0665 34.1576 43.112 25.4437 46.2081 17.5889L46.4299 17.0439C46.9696 15.7623 47.6763 14.3602 48.8538 12.0176C49.4008 10.9292 49.5214 10.6656 49.5596 10.5264L49.6058 10.3164C49.7647 9.33883 49.1736 8.38747 48.2235 8.0918L48.0144 8.03906C47.8722 8.01079 47.5809 8 46.3573 8H13.6427Z" fill="#FFBA43"/>
<path d="M4.76706 18.959C5.308 18.4209 6.22638 18.608 6.51058 19.3145L8.12157 23.3223L8.28748 23.752C9.94299 28.2107 9.6755 33.1603 7.53254 37.4238L5.07139 42.3193L5.00267 42.4375C4.65288 42.961 3.92131 43.0791 3.4231 42.6924L3.32002 42.6016C3.01613 42.2992 2.92244 41.8528 3.06575 41.4609L3.14135 41.2969L4.71699 38.5254C7.4944 33.6373 7.83392 27.7547 5.66042 22.5947L5.44248 22.0977L4.55108 20.1475C4.39026 19.7955 4.43568 19.3885 4.66005 19.083L4.76706 18.959Z" fill="#FFBA43"/>
<path d="M53.4894 19.3145C53.7736 18.608 54.692 18.4209 55.2329 18.959L55.34 19.083C55.5643 19.3885 55.6097 19.7955 55.4489 20.1475L54.5575 22.0977L54.3396 22.5947C52.1661 27.7547 52.5056 33.6373 55.283 38.5254L56.8587 41.2969L56.9342 41.4609C57.0776 41.8528 56.9839 42.2992 56.68 42.6016L56.5769 42.6924C56.0787 43.0791 55.3471 42.961 54.9973 42.4375L54.9286 42.3193L52.4675 37.4238C50.3245 33.1603 50.057 28.2107 51.7125 23.752L51.8784 23.3223L53.4894 19.3145Z" fill="#FFBA43"/>
</svg>
