<svg width="236" height="236" viewBox="0 0 236 236" fill="none" xmlns="http://www.w3.org/2000/svg">
<path d="M104.989 3.38943C113.32 -0.0613633 122.68 -0.0613638 131.011 3.38943L189.842 27.7578C198.173 31.2085 204.791 37.8275 208.242 46.1584L232.611 104.989C236.061 113.32 236.061 122.68 232.611 131.011L208.242 189.842C204.791 198.173 198.173 204.791 189.842 208.242L131.011 232.611C122.68 236.061 113.32 236.061 104.989 232.611L46.1584 208.242C37.8275 204.791 31.2086 198.173 27.7578 189.842L3.38943 131.011C-0.0613633 122.68 -0.0613638 113.32 3.38943 104.989L27.7578 46.1584C31.2085 37.8275 37.8275 31.2086 46.1584 27.7578L104.989 3.38943Z" fill="white"/>
</svg>
