<svg width="739" height="642" viewBox="0 0 739 642" fill="none" xmlns="http://www.w3.org/2000/svg">
<path opacity="0.2" fill-rule="evenodd" clip-rule="evenodd" d="M400.623 39.9239C475.848 50.0582 544.55 86.2971 589.773 142.963C629.36 192.566 618.551 256.807 622.86 318.39C627.695 387.505 659.321 461.732 616.022 518.162C568.569 580.008 481.87 617.189 400.623 608.03C324.415 599.438 283.952 527.205 231.914 474.859C183.389 426.047 126.774 383.485 112.687 318.39C95.2449 237.796 85.8352 142.667 147.182 83.3374C208.997 23.5556 312.242 28.0173 400.623 39.9239Z" fill="#D9F0E0"/>
<path opacity="0.2" fill-rule="evenodd" clip-rule="evenodd" d="M392.129 8.30701C467.961 26.2678 492.596 109.094 538.33 168.015C572.376 211.878 605.656 251.598 621.368 303.646C645.829 384.674 701.152 474.035 652.075 544.799C600.096 619.747 485.45 655.335 392.129 634.183C306.773 614.837 293.025 510.703 234.261 450.101C181.734 395.929 88.4303 374.822 71.6216 303.646C52.5381 222.837 82.4164 133.315 145.683 75.0165C208.799 16.8569 305.934 -12.1083 392.129 8.30701Z" fill="#D9F0E0"/>
<path opacity="0.2" fill-rule="evenodd" clip-rule="evenodd" d="M405.253 33.8453C489.325 35.7995 591.34 -0.65295 646.517 58.2569C701.405 116.857 647.285 205.041 637.872 282.199C630.215 344.965 634.194 407.423 597.434 460.582C549.379 530.078 492.881 604.331 405.253 618.603C306.99 634.608 199.164 604.36 131.273 536.507C64.9996 470.271 64.9109 372.527 68.6588 282.199C72.2178 196.425 79.2023 100.166 151.594 46.7528C220.505 -4.09248 317.25 31.7998 405.253 33.8453Z" fill="#D9F0E0"/>
<path opacity="0.2" fill-rule="evenodd" clip-rule="evenodd" d="M344.747 117.881C427.814 102.816 515.581 65.525 588.619 105.216C674.12 151.679 742.68 239.688 737.898 331.53C733.213 421.532 650.44 492.27 566.14 536.984C499.527 572.316 421.362 543.895 344.747 540.061C275.395 536.59 204.165 551.193 146.009 515.959C74.5491 472.664 -7.54619 410.369 0.555247 331.53C8.56988 253.535 110.438 222.773 180.613 179.213C231.577 147.579 284.571 128.795 344.747 117.881Z" fill="#D9F0E0"/>
<path opacity="0.2" fill-rule="evenodd" clip-rule="evenodd" d="M359.276 40.9855C443.923 34.1902 492.354 125.675 551.191 182.529C608.024 237.446 688.081 284.435 689.976 360.538C691.889 437.402 625.611 499.66 560.264 546.961C503.186 588.277 431.276 606.973 359.276 599.914C294.302 593.543 247.005 550.005 196.716 511.317C137.973 466.126 47.8321 431.325 48.1191 360.538C48.406 289.772 146.797 263.405 197.934 210.888C254.629 152.663 275.005 47.7506 359.276 40.9855Z" fill="#D9F0E0"/>
<path opacity="0.2" fill-rule="evenodd" clip-rule="evenodd" d="M373.333 0.0567051C458.976 2.91295 487.881 107.292 535.231 173.597C568.953 220.818 589.453 268.997 604.587 323.881C628.346 410.046 701.163 504.44 646.625 577.568C591.405 651.611 469.175 647.915 373.333 633.962C290.985 621.973 230.021 566.197 174.143 508.782C122.097 455.303 66.321 395.788 71.5573 323.881C76.6023 254.602 150.429 214.91 199.368 162.396C255.291 102.387 287.91 -2.79221 373.333 0.0567051Z" fill="#D9F0E0"/>
</svg>
