<svg width="44" height="44" viewBox="0 0 44 44" fill="none" xmlns="http://www.w3.org/2000/svg">
<path d="M42.1668 7.33325V10.9999H36.6668V16.4999H33.0002V10.9999H27.5002V7.33325H33.0002V1.83325H36.6668V7.33325H42.1668ZM26.5835 20.1666C27.3131 20.1663 28.0127 19.8763 28.5284 19.3602C29.0441 18.8441 29.3337 18.1443 29.3335 17.4148C29.3333 16.6852 29.0432 15.9856 28.5271 15.4698C28.0111 14.9541 27.3113 14.6645 26.5817 14.6648C26.2204 14.6649 25.8627 14.7361 25.529 14.8745C25.1953 15.0129 24.8921 15.2156 24.6367 15.4711C24.3814 15.7267 24.1789 16.03 24.0407 16.3638C23.9026 16.6976 23.8315 17.0553 23.8317 17.4166C23.8318 17.7778 23.9031 18.1355 24.0414 18.4692C24.1798 18.803 24.3825 19.1061 24.638 19.3615C24.8936 19.6169 25.1969 19.8194 25.5307 19.9575C25.8645 20.0957 26.2222 20.1667 26.5835 20.1666ZM33.0002 26.0956L32.0597 25.0506C31.7158 24.6677 31.2952 24.3615 30.8252 24.1519C30.3552 23.9422 29.8463 23.8339 29.3317 23.8339C28.817 23.8339 28.3082 23.9422 27.8382 24.1519C27.3681 24.3615 26.9475 24.6677 26.6037 25.0506L25.401 26.3908L16.5002 16.4999L11.0002 22.6104V10.9999H23.8335V7.33325H11.0002C10.0277 7.33325 9.09507 7.71956 8.40744 8.40719C7.7198 9.09483 7.3335 10.0275 7.3335 10.9999V32.9999C7.3335 33.9724 7.7198 34.905 8.40744 35.5926C9.09507 36.2803 10.0277 36.6666 11.0002 36.6666H33.0002C33.9726 36.6666 34.9053 36.2803 35.5929 35.5926C36.2805 34.905 36.6668 33.9724 36.6668 32.9999V20.1666H33.0002V26.0956Z" fill="white"/>
</svg>
