<svg width="80" height="80" viewBox="0 0 80 80" fill="none" xmlns="http://www.w3.org/2000/svg">
<path d="M23.9583 10C16.2789 10 10 16.2789 10 23.9583V56.0417C10 63.7211 16.2789 70 23.9583 70H56.0417C63.7211 70 70 63.7211 70 56.0417V23.9583C70 16.2789 63.7211 10 56.0417 10H23.9583ZM23.9583 15H56.0417C61.0189 15 65 18.9811 65 23.9583V56.0417C65 61.0189 61.0189 65 56.0417 65H23.9583C18.9811 65 15 61.0189 15 56.0417V23.9583C15 18.9811 18.9811 15 23.9583 15ZM26.6667 22.0638C26.2923 22.0638 25.9197 22.2759 25.778 22.7051C25.1263 24.6834 23.5734 26.2364 21.5951 26.888C20.7367 27.1697 20.7367 28.3853 21.5951 28.6686C23.5734 29.3203 25.128 30.8732 25.778 32.8516C26.0597 33.7099 27.2737 33.7099 27.5553 32.8516C28.207 30.8732 29.7599 29.3186 31.7383 28.6686C32.5966 28.387 32.5966 27.1697 31.7383 26.888C29.7599 26.2364 28.2053 24.6834 27.5553 22.7051C27.4145 22.2759 27.041 22.0638 26.6667 22.0638ZM47.7767 24.668C47.3327 24.668 46.8903 24.9238 46.722 25.4329L45.1562 30.1953C44.3846 32.542 42.542 34.3846 40.1953 35.1562L35.4329 36.722C34.4146 37.057 34.4146 38.4996 35.4329 38.8346L40.1953 40.4004C42.542 41.1721 44.3846 43.0114 45.1562 45.3581L46.722 50.1237C47.057 51.142 48.4996 51.142 48.8346 50.1237L50.4004 45.3581C51.1721 43.0114 53.0114 41.1721 55.3581 40.4004L60.1237 38.8346C61.142 38.4996 61.142 37.057 60.1237 36.722L55.3581 35.1562C53.0114 34.3846 51.1721 32.542 50.4004 30.1953L48.8346 25.4329C48.6671 24.9238 48.2206 24.668 47.7767 24.668ZM31.11 44.668C30.6661 44.668 30.2237 44.9238 30.0553 45.4329L29.8633 46.0156C29.0916 48.3623 27.2523 50.2049 24.9056 50.9766L24.3197 51.1654C23.3013 51.5004 23.3013 52.943 24.3197 53.278L24.9056 53.4701C27.2523 54.2417 29.0916 56.0811 29.8633 58.4277L30.0553 59.0137C30.3903 60.032 31.833 60.032 32.168 59.0137L32.3568 58.4277C33.1284 56.0811 34.971 54.2417 37.3177 53.4701L37.9004 53.278C38.9187 52.943 38.9187 51.5004 37.9004 51.1654L37.3177 50.9766C34.971 50.2049 33.1284 48.3623 32.3568 46.0156L32.168 45.4329C32.0005 44.9238 31.554 44.668 31.11 44.668Z" fill="#91E3A8"/>
</svg>
