<svg width="44" height="44" viewBox="0 0 44 44" fill="none" xmlns="http://www.w3.org/2000/svg">
<path d="M40.3332 22.0001C40.3332 32.1256 32.1253 40.3334 21.9998 40.3334C11.8743 40.3334 3.6665 32.1256 3.6665 22.0001C3.6665 11.8746 11.8743 3.66675 21.9998 3.66675V7.33341C18.4881 7.33382 15.0932 8.5942 12.4319 10.8855C9.77074 13.1767 8.01997 16.3468 7.49786 19.8195C6.97575 23.2921 7.71695 26.8369 9.58676 29.8094C11.4566 32.7819 14.3308 34.9848 17.6872 36.0178C21.0435 37.0508 24.659 36.8453 27.8767 35.4386C31.0943 34.0319 33.7004 31.5174 35.2213 28.3521C36.7422 25.1869 37.0769 21.581 36.1646 18.1899C35.2523 14.7987 33.1536 11.8475 30.2498 9.87258V14.6667H26.5832V3.66675H37.5832V7.33341H32.9998C35.2778 9.04012 37.1267 11.2543 38.3996 13.8002C39.6726 16.3461 40.3346 19.1537 40.3332 22.0001Z" fill="#BCBCBC"/>
</svg>
